<svg width="100" height="100" viewBox="0 0 100 100" fill="none" xmlns="http://www.w3.org/2000/svg">
<path d="M3 15.0937V93.3735C3 95.3764 4.62362 97 6.62645 97H84.9063C88.1371 97 89.7551 93.0938 87.4706 90.8092L9.19074 12.5294C6.9062 10.2449 3 11.8629 3 15.0937Z" fill="#D9D9D9"/>
<path d="M49.94 8.49689V47.2067C49.94 48.1971 50.7429 49 51.7333 49H90.4431C92.0408 49 92.8409 47.0684 91.7112 45.9386L53.0014 7.22884C51.8716 6.09912 49.94 6.89923 49.94 8.49689Z" fill="#D9D9D9"/>
<path d="M47.18 43.5031L47.18 4.7933C47.18 3.80288 46.3771 3 45.3867 3L6.6769 3C5.07924 3 4.27912 4.93164 5.40884 6.06136L44.1186 44.7712C45.2484 45.9009 47.18 45.1008 47.18 43.5031Z" fill="#D9D9D9"/>
<path d="M97 92.3831L97 53.6733C97 52.6829 96.1971 51.88 95.2067 51.88L56.4969 51.88C54.8992 51.88 54.0991 53.8116 55.2288 54.9414L93.9386 93.6512C95.0684 94.7809 97 93.9808 97 92.3831Z" fill="#D9D9D9"/>
<path d="M97 43.5031L97 4.7933C97 3.80288 96.1971 3 95.2067 3L56.4969 3C54.8992 3 54.0991 4.93164 55.2288 6.06136L93.9386 44.7712C95.0684 45.9009 97 45.1008 97 43.5031Z" fill="#D9D9D9"/>
</svg>
